<svg width="48" height="49" viewBox="0 0 48 49" fill="none" xmlns="http://www.w3.org/2000/svg">
<path d="M32.5582 32.9312L33.6338 31.8048L31.1358 29.1591L30.065 30.2855L32.5582 32.9312ZM37.2403 31.3323L41.7479 33.9159L43.4344 30.6386L38.9292 28.0575L37.2403 31.3323ZM42.6135 39.0481L39.2641 42.5616L41.7573 45.2048L45.1067 41.6938L42.6135 39.0481ZM37.2214 43.6905C33.8012 44.0287 24.9559 43.7278 15.3746 33.6871L12.8791 36.3303C23.3331 47.2885 33.2847 47.8256 37.5516 47.4054L37.2214 43.6905ZM15.3746 33.6871C6.24392 24.1139 4.7296 16.0649 4.5409 12.5713L1.00749 12.7827C1.24336 17.1789 3.11857 26.1006 12.8791 36.3303L15.3746 33.6871ZM18.6179 18.3202L19.2949 17.6091L16.8041 14.9658L16.1271 15.6745L18.6179 18.3202ZM19.8327 8.57044L16.8607 4.38309L14.0278 6.62098L16.9998 10.8058L19.8327 8.57044ZM6.85719 3.47052L3.15395 7.34954L5.64951 9.99523L9.35039 6.11621L6.85719 3.47052ZM17.3725 16.9974C16.1224 15.6745 16.1224 15.6745 16.1224 15.6795H16.1177L16.1106 15.6894C15.9985 15.8086 15.8981 15.9394 15.811 16.0798C15.6836 16.2787 15.5445 16.5398 15.4265 16.8705C15.1394 17.7242 15.0679 18.642 15.219 19.5336C15.535 21.6845 16.9409 24.5266 20.5403 28.3012L23.0359 25.6555C19.6652 22.1246 18.8632 19.9762 18.7146 18.9617C18.6439 18.4793 18.717 18.2406 18.7382 18.1859C18.7524 18.1528 18.7524 18.1478 18.7382 18.171C18.7172 18.2053 18.6935 18.2378 18.6675 18.268L18.6439 18.2929L18.6203 18.3152L17.3725 16.9974ZM20.5403 28.3012C24.1421 32.0758 26.8523 33.5478 28.895 33.8761C29.94 34.0452 30.782 33.9109 31.4212 33.6597C31.7793 33.5217 32.1138 33.3235 32.4119 33.0729L32.5299 32.961L32.5464 32.9461L32.5534 32.9386L32.5558 32.9337C32.5558 32.9337 32.5582 32.9312 31.3104 31.6083C30.0602 30.2855 30.0673 30.283 30.0673 30.283L30.072 30.278L30.0768 30.2731L30.0909 30.2606L30.1145 30.2358L30.2041 30.1612C30.2261 30.1462 30.2206 30.1479 30.1876 30.1661C30.1286 30.1885 29.8975 30.2656 29.4328 30.191C28.4563 30.0319 26.4042 29.1864 23.0359 25.6555L20.5403 28.3012ZM16.8607 4.3806C14.4547 0.998889 9.72779 0.461794 6.85719 3.47052L9.35039 6.11621C10.6053 4.80083 12.8319 4.93759 14.0278 6.62098L16.8607 4.3806ZM4.54326 12.5738C4.49608 11.7134 4.87112 10.8133 5.64951 9.99772L3.15159 7.35203C1.88494 8.67985 0.887189 10.5597 1.00749 12.7827L4.54326 12.5738ZM39.2641 42.5616C38.6178 43.2429 37.9196 43.6258 37.2238 43.693L37.5516 47.4054C39.2853 47.2338 40.7029 46.3138 41.7597 45.2073L39.2641 42.5616ZM19.2949 17.6091C21.6183 15.1747 21.7905 11.328 19.8351 8.57292L17.0022 10.8083C17.9528 12.1486 17.8112 13.9066 16.8017 14.9683L19.2949 17.6091ZM41.7502 33.9183C43.6773 35.0224 43.9769 37.6233 42.6159 39.0506L45.1114 41.6938C48.2722 38.3792 47.298 32.8516 43.4367 30.6411L41.7502 33.9183ZM33.6338 31.8073C34.5395 30.8574 35.9972 30.6237 37.2426 31.3348L38.9315 28.06C36.3746 26.593 33.2045 26.9983 31.1382 29.1616L33.6338 31.8073Z" fill="black"/>
</svg>
