<svg width="37" height="37" viewBox="0 0 37 37" fill="none" xmlns="http://www.w3.org/2000/svg">
<path d="M25.4438 21.3365L26.1278 20.657L24.5393 19.061L23.8583 19.7405L25.4438 21.3365ZM28.4213 20.372L31.2878 21.9305L32.3603 19.9535L29.4953 18.3965L28.4213 20.372ZM31.8383 25.0265L29.7083 27.146L31.2938 28.7405L33.4238 26.6225L31.8383 25.0265ZM28.4093 27.827C26.2343 28.031 20.6093 27.8495 14.5163 21.7925L12.9293 23.387C19.5773 29.9975 25.9058 30.3215 28.6193 30.068L28.4093 27.827ZM14.5163 21.7925C8.70976 16.0175 7.74676 11.162 7.62676 9.0545L5.37976 9.182C5.52976 11.834 6.72226 17.216 12.9293 23.387L14.5163 21.7925ZM16.5788 12.5225L17.0093 12.0935L15.4253 10.499L14.9948 10.9265L16.5788 12.5225ZM17.3513 6.641L15.4613 4.115L13.6598 5.465L15.5498 7.9895L17.3513 6.641ZM9.09976 3.5645L6.74476 5.9045L8.33176 7.5005L10.6853 5.1605L9.09976 3.5645ZM15.7868 11.7245C14.9918 10.9265 14.9918 10.9265 14.9918 10.9295H14.9888L14.9843 10.9355C14.913 11.0074 14.8492 11.0863 14.7938 11.171C14.7128 11.291 14.6243 11.4485 14.5493 11.648C14.3667 12.163 14.3212 12.7166 14.4173 13.2545C14.6183 14.552 15.5123 16.2665 17.8013 18.5435L19.3883 16.9475C17.2448 14.8175 16.7348 13.5215 16.6403 12.9095C16.5953 12.6185 16.6418 12.4745 16.6553 12.4415C16.6643 12.4215 16.6643 12.4185 16.6553 12.4325C16.6419 12.4532 16.6268 12.4728 16.6103 12.491L16.5953 12.506L16.5803 12.5195L15.7868 11.7245ZM17.8013 18.5435C20.0918 20.8205 21.8153 21.7085 23.1143 21.9065C23.7788 22.0085 24.3143 21.9275 24.7208 21.776C24.9485 21.6927 25.1612 21.5732 25.3508 21.422L25.4258 21.3545L25.4363 21.3455L25.4408 21.341L25.4423 21.338C25.4423 21.338 25.4438 21.3365 24.6503 20.5385C23.8553 19.7405 23.8598 19.739 23.8598 19.739L23.8628 19.736L23.8658 19.733L23.8748 19.7255L23.8898 19.7105L23.9468 19.6655C23.9608 19.6565 23.9573 19.6575 23.9363 19.6685C23.8988 19.682 23.7518 19.7285 23.4563 19.6835C22.8353 19.5875 21.5303 19.0775 19.3883 16.9475L17.8013 18.5435ZM15.4613 4.1135C13.9313 2.0735 10.9253 1.7495 9.09976 3.5645L10.6853 5.1605C11.4833 4.367 12.8993 4.4495 13.6598 5.465L15.4613 4.1135ZM7.62826 9.056C7.59826 8.537 7.83676 7.994 8.33176 7.502L6.74326 5.906C5.93776 6.707 5.30326 7.841 5.37976 9.182L7.62826 9.056ZM29.7083 27.146C29.2973 27.557 28.8533 27.788 28.4108 27.8285L28.6193 30.068C29.7218 29.9645 30.6233 29.4095 31.2953 28.742L29.7083 27.146ZM17.0093 12.0935C18.4868 10.625 18.5963 8.3045 17.3528 6.6425L15.5513 7.991C16.1558 8.7995 16.0658 9.86 15.4238 10.5005L17.0093 12.0935ZM31.2893 21.932C32.5148 22.598 32.7053 24.167 31.8398 25.028L33.4268 26.6225C35.4368 24.623 34.8173 21.2885 32.3618 19.955L31.2893 21.932ZM26.1278 20.6585C26.7038 20.0855 27.6308 19.9445 28.4228 20.3735L29.4968 18.398C27.8708 17.513 25.8548 17.7575 24.5408 19.0625L26.1278 20.6585Z" fill="#535F70"/>
</svg>
