<svg width="37" height="37" viewBox="0 0 37 37" fill="none" xmlns="http://www.w3.org/2000/svg">
<path d="M18.5 18.5C16.85 18.5 15.4375 17.9125 14.2625 16.7375C13.0875 15.5625 12.5 14.15 12.5 12.5C12.5 10.85 13.0875 9.4375 14.2625 8.2625C15.4375 7.0875 16.85 6.5 18.5 6.5C20.15 6.5 21.5625 7.0875 22.7375 8.2625C23.9125 9.4375 24.5 10.85 24.5 12.5C24.5 14.15 23.9125 15.5625 22.7375 16.7375C21.5625 17.9125 20.15 18.5 18.5 18.5ZM6.5 30.5V26.3C6.5 25.45 6.719 24.669 7.157 23.957C7.595 23.245 8.176 22.701 8.9 22.325C10.45 21.55 12.025 20.969 13.625 20.582C15.225 20.195 16.85 20.001 18.5 20C20.15 19.999 21.775 20.193 23.375 20.582C24.975 20.971 26.55 21.552 28.1 22.325C28.825 22.7 29.4065 23.244 29.8445 23.957C30.2825 24.67 30.501 25.451 30.5 26.3V30.5H6.5ZM9.5 27.5H27.5V26.3C27.5 26.025 27.4315 25.775 27.2945 25.55C27.1575 25.325 26.976 25.15 26.75 25.025C25.4 24.35 24.0375 23.844 22.6625 23.507C21.2875 23.17 19.9 23.001 18.5 23C17.1 22.999 15.7125 23.168 14.3375 23.507C12.9625 23.846 11.6 24.352 10.25 25.025C10.025 25.15 9.8435 25.325 9.7055 25.55C9.5675 25.775 9.499 26.025 9.5 26.3V27.5ZM18.5 15.5C19.325 15.5 20.0315 15.2065 20.6195 14.6195C21.2075 14.0325 21.501 13.326 21.5 12.5C21.499 11.674 21.2055 10.968 20.6195 10.382C20.0335 9.796 19.327 9.502 18.5 9.5C17.673 9.498 16.967 9.792 16.382 10.382C15.797 10.972 15.503 11.678 15.5 12.5C15.497 13.322 15.791 14.0285 16.382 14.6195C16.973 15.2105 17.679 15.504 18.5 15.5Z" fill="#535F70"/>
</svg>
