<svg width="48" height="49" viewBox="0 0 48 49" fill="none" xmlns="http://www.w3.org/2000/svg">
<g clip-path="url(#clip0_768_1577)">
<path d="M24 0.5C17.6362 0.5 11.5275 3.03013 7.03125 7.52938C2.5304 12.0304 0.00128793 18.1347 0 24.5C0 30.8626 2.53125 36.9714 7.03125 41.4706C11.5275 45.9699 17.6362 48.5 24 48.5C30.3638 48.5 36.4725 45.9699 40.9688 41.4706C45.4688 36.9714 48 30.8626 48 24.5C48 18.1374 45.4688 12.0286 40.9688 7.52938C36.4725 3.03013 30.3638 0.5 24 0.5Z" fill="url(#paint0_linear_768_1577)"/>
<path d="M10.8637 24.2465C17.8612 21.1985 22.5262 19.189 24.8587 18.218C31.5262 15.4456 32.9099 14.9641 33.8137 14.9478C34.0124 14.9446 34.4549 14.9937 34.7437 15.2271C34.9837 15.424 35.0512 15.6903 35.0849 15.8772C35.1149 16.064 35.1562 16.4896 35.1224 16.8218C34.7624 20.6168 33.1987 29.8261 32.4037 34.0767C32.0699 35.8752 31.4062 36.4782 30.7649 36.5371C29.3699 36.6653 28.3124 35.6161 26.9624 34.7315C24.8512 33.3466 23.6587 32.4848 21.6074 31.1337C19.2374 29.5722 20.7749 28.7138 22.1249 27.3113C22.4774 26.9442 28.6199 21.3586 28.7362 20.852C28.7512 20.7886 28.7662 20.5523 28.6237 20.4278C28.4849 20.303 28.2787 20.3457 28.1287 20.3795C27.9149 20.4275 24.5437 22.658 18.0037 27.0706C17.0474 27.7283 16.1812 28.049 15.4012 28.0321C14.5462 28.0137 12.8962 27.5476 11.6699 27.1493C10.1699 26.6607 8.97369 26.4023 9.07869 25.5725C9.13119 25.1405 9.72744 24.6983 10.8637 24.2465Z" fill="white"/>
</g>
<defs>
<linearGradient id="paint0_linear_768_1577" x1="2400" y1="0.5" x2="2400" y2="4800.5" gradientUnits="userSpaceOnUse">
<stop stop-color="#2AABEE"/>
<stop offset="1" stop-color="#229ED9"/>
</linearGradient>
<clipPath id="clip0_768_1577">
<rect width="48" height="48" fill="white" transform="translate(0 0.5)"/>
</clipPath>
</defs>
</svg>
