<svg width="48" height="49" viewBox="0 0 48 49" fill="none" xmlns="http://www.w3.org/2000/svg">
<g clip-path="url(#clip0_768_1571)">
<path d="M1.02516 24.2127C1.02403 28.2456 2.08603 32.1835 4.10541 35.6544L0.832031 47.5134L13.063 44.3312C16.446 46.1586 20.2363 47.1161 24.088 47.1163H24.0982C36.8135 47.1163 47.164 36.8497 47.1695 24.2308C47.1719 18.116 44.7742 12.366 40.4178 8.04006C36.0622 3.71448 30.2693 1.33104 24.0972 1.32825C11.3804 1.32825 1.03059 11.5943 1.02534 24.2127" fill="url(#paint0_linear_768_1571)"/>
<path d="M0.200625 24.2053C0.199313 28.3833 1.29937 32.462 3.39075 36.0572L0 48.3413L12.6696 45.0451C16.1604 46.9337 20.0908 47.9294 24.0902 47.9309H24.1005C37.272 47.9309 47.9944 37.295 48 24.2243C48.0023 17.8898 45.5182 11.9331 41.0062 7.45219C36.4937 2.97181 30.4937 0.502605 24.1005 0.5C10.9267 0.5 0.205875 11.1344 0.200625 24.2053ZM7.74581 35.438L7.27275 34.6929C5.28412 31.5554 4.2345 27.9298 4.236 24.2068C4.24012 13.3426 13.1509 4.50372 24.108 4.50372C29.4143 4.50595 34.401 6.55842 38.1517 10.2823C41.9023 14.0066 43.9661 18.9573 43.9648 24.2228C43.9599 35.087 35.049 43.927 24.1005 43.927H24.0926C20.5277 43.9251 17.0314 42.9752 13.9823 41.18L13.2566 40.753L5.73825 42.7089L7.74581 35.438Z" fill="url(#paint1_linear_768_1571)"/>
<path d="M18.1277 14.2949C17.6803 13.3083 17.2095 13.2884 16.784 13.2711C16.4357 13.2562 16.0374 13.2573 15.6395 13.2573C15.2413 13.2573 14.5942 13.406 14.0473 13.9986C13.4998 14.5917 11.957 16.025 11.957 18.9401C11.957 21.8553 14.097 24.6728 14.3953 25.0685C14.694 25.4635 18.5265 31.6372 24.5962 34.0123C29.6407 35.9861 30.6673 35.5935 31.7621 35.4946C32.8571 35.3959 35.2953 34.0616 35.7928 32.678C36.2906 31.2946 36.2906 30.1087 36.1413 29.8609C35.9921 29.614 35.5938 29.4657 34.9967 29.1695C34.3995 28.8733 31.4634 27.4397 30.9161 27.2419C30.3686 27.0443 29.9705 26.9457 29.5723 27.539C29.174 28.1314 28.0305 29.4657 27.6819 29.8609C27.3337 30.257 26.9852 30.3063 26.3882 30.0099C25.7906 29.7126 23.8674 29.0877 21.5857 27.0692C19.8105 25.4986 18.612 23.5591 18.2636 22.9658C17.9152 22.3734 18.2263 22.0523 18.5257 21.7571C18.794 21.4916 19.1231 21.0652 19.422 20.7193C19.7197 20.3733 19.8191 20.1264 20.0182 19.7312C20.2175 19.3357 20.1178 18.9896 19.9687 18.6933C19.8191 18.3969 18.6587 15.4665 18.1277 14.2949Z" fill="white"/>
</g>
<defs>
<linearGradient id="paint0_linear_768_1571" x1="2317.7" y1="4619.84" x2="2317.7" y2="1.32825" gradientUnits="userSpaceOnUse">
<stop stop-color="#1FAF38"/>
<stop offset="1" stop-color="#60D669"/>
</linearGradient>
<linearGradient id="paint1_linear_768_1571" x1="2400" y1="4784.63" x2="2400" y2="0.5" gradientUnits="userSpaceOnUse">
<stop stop-color="#F9F9F9"/>
<stop offset="1" stop-color="white"/>
</linearGradient>
<clipPath id="clip0_768_1571">
<rect width="48" height="48" fill="white" transform="translate(0 0.5)"/>
</clipPath>
</defs>
</svg>
