<svg width="315" height="41" viewBox="0 0 315 41" fill="none" xmlns="http://www.w3.org/2000/svg">
<g clip-path="url(#clip0_2001_451)">
<path d="M203.704 8.89844H210.5L198.266 40.1915H191.638L195.214 30.9177L185.012 8.89844H191.978L198.436 22.5607L203.704 8.89844Z" fill="#E72541"/>
<path d="M174.37 31.463C172.129 31.463 169.706 30.8213 168.242 29.1746V40.25H161.932V8.89873H168.242V10.5921C169.706 8.94373 172.129 8.30371 174.37 8.30371C181.413 8.30371 185.62 13.9339 185.62 19.8825C185.62 25.8311 181.413 31.4613 174.37 31.4613V31.463ZM173.821 14.1173C171.031 14.1173 167.967 16.039 167.967 19.8842C167.967 23.7293 171.031 25.6511 173.821 25.6511C177.068 25.6511 179.308 22.951 179.308 19.8842C179.308 16.8174 177.067 14.1173 173.821 14.1173Z" fill="#E72541"/>
<path d="M158.811 26.1143C158.811 28.7644 156.666 30.9111 154.018 30.9111H144.432C141.785 30.9111 139.64 28.7627 139.64 26.1143C139.64 23.4658 141.785 21.3174 144.432 21.3174H154.018C156.666 21.3174 158.811 23.4658 158.811 26.1143Z" fill="#E72541"/>
<path d="M144.136 13.4162C144.136 10.6538 146.372 8.41602 149.132 8.41602C151.892 8.41602 154.128 10.6555 154.128 13.4162C154.128 16.1769 151.892 18.4164 149.132 18.4164C146.372 18.4164 144.136 16.1769 144.136 13.4162Z" fill="#E72541"/>
<path d="M113.955 8.89844H120.265V22.1707L130.189 8.89844H136.499V30.8677H130.189V17.5955L120.265 30.8677H113.955V8.89844Z" fill="#E72541"/>
<path d="M91.273 0.25H97.583V8.90036H99.4115C106.18 8.90036 111.164 13.5689 111.164 19.8841C111.164 26.6578 106.499 30.8679 99.4565 30.8679H97.5813V40.205H91.2713V30.8679H89.3962C82.3084 30.8679 77.7354 26.6578 77.7354 19.8841C77.7354 13.5689 82.6748 8.90036 89.4877 8.90036H91.2713V0.25H91.273ZM89.3062 14.3923C85.9672 14.3923 84.0471 16.589 84.0471 19.8841C84.0471 23.1793 85.8307 25.376 89.3512 25.376H91.2713V14.3923H89.3046H89.3062ZM97.5847 14.3923V25.376H99.5514C103.072 25.376 104.856 23.0409 104.856 19.8841C104.856 16.7274 102.889 14.3923 99.5514 14.3923H97.5847Z" fill="#E72541"/>
<path d="M76.0917 19.9292C76.0917 26.7495 70.6494 31.463 64.1096 31.463C57.5698 31.463 52.0825 26.6111 52.0825 19.9292C52.0825 13.2472 57.4332 8.30371 64.0629 8.30371C70.6927 8.30371 76.0901 13.1556 76.0901 19.9292H76.0917ZM60.0395 15.674C58.8504 16.8641 58.3925 18.2825 58.3925 19.9309C58.3925 23.3177 60.8155 25.6511 64.1079 25.6511C67.4003 25.6511 69.7784 23.1793 69.7784 19.9309C69.7784 19.0608 69.6419 18.2825 69.3671 17.5508C68.7276 16.0857 67.7667 15.2157 66.3495 14.5306C65.6184 14.2556 64.8856 14.119 64.1079 14.119C62.4609 14.119 61.2718 14.6223 60.0378 15.6757L60.0395 15.674Z" fill="#E72541"/>
<path d="M39.1875 31.463C36.946 31.463 34.5229 30.8213 33.059 29.1746V40.25H26.749V8.89873H33.059V10.5921C34.5229 8.94373 36.946 8.30371 39.1875 8.30371C46.2302 8.30371 50.4369 13.9339 50.4369 19.8825C50.4369 25.8311 46.2302 31.4613 39.1875 31.4613V31.463ZM38.6379 14.1173C35.8485 14.1173 32.7843 16.039 32.7843 19.8842C32.7843 23.7293 35.8485 25.6511 38.6379 25.6511C41.8854 25.6511 44.1253 22.951 44.1253 19.8842C44.1253 16.8174 41.8837 14.1173 38.6379 14.1173Z" fill="#E72541"/>
<path d="M22.7257 8.89844V30.8677H16.4157V14.3904H6.81166V30.8677H0.5V8.89844H22.7257Z" fill="#E72541"/>
</g>
<defs>
<clipPath id="clip0_2001_451">
<rect width="210" height="40" fill="white" transform="translate(0.5 0.25)"/>
</clipPath>
</defs>
</svg>
